<svg version="1" xmlns="http://www.w3.org/2000/svg" width="146.3" height="40.375" viewBox="0 0 146.3 40.375"><g fill="#fff"><path class="hover-color" d="M71.874 18.661c0-.708.58-1.288 1.256-1.288h7.18c5.087 0 8.436 2.704 8.436 7.147v.064c0 4.861-4.057 7.373-8.854 7.373h-5.474v6.825c0 .708-.58 1.288-1.288 1.288-.676 0-1.256-.58-1.256-1.288v-20.121zm8.114 10.979c3.734 0 6.182-1.996 6.182-4.958v-.064c0-3.22-2.415-4.894-6.054-4.894h-5.698v9.917h5.57zM93.603 18.5c0-.708.579-1.288 1.255-1.288.709 0 1.288.58 1.288 1.288v20.283c0 .708-.579 1.288-1.288 1.288-.676 0-1.255-.58-1.255-1.288v-20.283zM102.744 18.532c0-.676.579-1.256 1.256-1.256h.354c.58 0 .934.29 1.288.74l13.684 17.45v-16.998c0-.676.547-1.256 1.256-1.256.676 0 1.223.58 1.223 1.256v20.348c0 .676-.482 1.191-1.158 1.191h-.129c-.548 0-.934-.322-1.32-.772l-13.974-17.869v17.45c0 .676-.547 1.256-1.255 1.256-.677 0-1.224-.58-1.224-1.256v-20.284zM128.174 18.5c0-.708.579-1.288 1.256-1.288.708 0 1.287.58 1.287 1.288v12.331l12.847-13.168c.29-.257.579-.451.998-.451.676 0 1.224.612 1.224 1.256 0 .354-.161.644-.419.901l-7.984 7.92 8.564 10.561c.225.29.354.547.354.934 0 .676-.579 1.288-1.287 1.288-.483 0-.806-.258-1.03-.58l-8.403-10.463-4.862 4.861v4.894c0 .708-.579 1.288-1.287 1.288-.677 0-1.256-.58-1.256-1.288v-20.284z"/></g><path class="hover-color" fill="#fff" d="M60.498 28.32l-.016-.158-.02-.146-.003-.025-5.172-21.34c-.361-2.348-2.593-6.651-8.599-6.651-.829 0-1.5.671-1.5 1.5s.671 1.5 1.5 1.5c4.856 0 5.575 3.729 5.639 4.143l4.767 19.701h-2.073c-.742-5.927-5.802-10.531-11.927-10.531s-11.186 4.604-11.927 10.531h-1.708c-.742-5.927-5.802-10.531-11.927-10.531s-11.186 4.604-11.928 10.531h-2.197l4.739-19.553.028-.148c.023-.17.628-4.143 5.638-4.143.829 0 1.5-.671 1.5-1.5s-.671-1.5-1.5-1.5c-6.006 0-8.238 4.303-8.599 6.651l-5.171 21.339-.003.025-.02.146-.016.158-.003.025.01.103.017.171.036.136.044.142.064.133.067.124.086.114.093.113.102.092.117.097.123.073.128.07.152.054.105.037.023.003c.107.023.217.039.331.039h4.104c.742 5.927 5.802 10.531 11.927 10.531s11.186-4.604 11.927-10.531h1.708c.742 5.927 5.802 10.531 11.927 10.531s11.186-4.604 11.927-10.531h3.982c.114 0 .224-.016.331-.039l.023-.003.105-.037.152-.054.128-.07.123-.073.117-.097.102-.092.093-.113.086-.114.067-.124.064-.133.044-.142.036-.136.017-.171.01-.103v-.024zm-42.967 9.055c-4.475 0-8.181-3.259-8.896-7.531-.082-.489-.135-.988-.135-1.5s.053-1.011.135-1.5c.716-4.271 4.421-7.531 8.896-7.531s8.181 3.26 8.896 7.531c.082.489.135.988.135 1.5s-.053 1.011-.135 1.5c-.715 4.272-4.421 7.531-8.896 7.531zm25.563 0c-4.475 0-8.181-3.259-8.896-7.531-.082-.489-.135-.988-.135-1.5s.053-1.011.135-1.5c.716-4.271 4.421-7.531 8.896-7.531s8.181 3.26 8.896 7.531c.082.489.135.988.135 1.5s-.053 1.011-.135 1.5c-.716 4.272-4.421 7.531-8.896 7.531z"/></svg>