<svg version="1" xmlns="http://www.w3.org/2000/svg" width="23.866" height="23.866" viewBox="0 0 23.866 23.866"><path class="hover-color" fill="#fff" d="M15.087 11.933l8.56-8.559c.293-.293.293-.768 0-1.061l-2.093-2.093c-.141-.141-.331-.22-.531-.22s-.39.079-.53.22l-8.56 8.56-8.56-8.56c-.282-.282-.78-.282-1.061 0l-2.092 2.093c-.293.293-.293.768 0 1.061l8.56 8.559-8.56 8.559c-.293.293-.293.768 0 1.061l2.093 2.094c.141.141.331.22.53.22s.39-.079.53-.22l8.561-8.56 8.56 8.56c.141.141.331.22.53.22s.39-.079.53-.22l2.093-2.094c.293-.293.293-.768 0-1.061l-8.56-8.559z"/></svg>