<svg version="1" xmlns="http://www.w3.org/2000/svg" width="49.945" height="24.007" viewBox="0 0 49.945 24.007"><g><path class="hover-color" fill="#fff" d="M1.137 0c-.627 0-1.137.428-1.137 1.01v1.981c0 .558.494 1.01 1.138 1.01h47.671c.628 0 1.138-.428 1.138-1.01v-1.981c0-.558-.494-1.01-1.138-1.01h-47.672zm0 10.003c-.627 0-1.137.428-1.137 1.01v1.98c0 .557.494 1.01 1.138 1.01h47.671c.628 0 1.138-.428 1.138-1.01v-1.98c0-.558-.494-1.01-1.138-1.01h-47.672zm0 10.002c-.627 0-1.137.429-1.137 1.011v1.981c0 .557.494 1.01 1.138 1.01h47.671c.628 0 1.138-.428 1.138-1.01v-1.981c0-.558-.494-1.011-1.138-1.011h-47.672z"/><path class="hover-color" fill="#fff" d="M1.137 0c-.627 0-1.137.428-1.137 1.01v1.981c0 .558.494 1.01 1.138 1.01h47.671c.628 0 1.138-.428 1.138-1.01v-1.981c0-.558-.494-1.01-1.138-1.01h-47.672zm0 10.003c-.627 0-1.137.428-1.137 1.01v1.98c0 .557.494 1.01 1.138 1.01h47.671c.628 0 1.138-.428 1.138-1.01v-1.98c0-.558-.494-1.01-1.138-1.01h-47.672zm0 10.002c-.627 0-1.137.429-1.137 1.011v1.981c0 .557.494 1.01 1.138 1.01h47.671c.628 0 1.138-.428 1.138-1.01v-1.981c0-.558-.494-1.011-1.138-1.011h-47.672z"/></g></svg>